<svg xmlns="http://www.w3.org/2000/svg" viewBox="0 0 32 32" fill="none">
  <path d="M16 2C16 2 9 6 9 14C9 18.4 11.6 22.2 15.3 24.1C15.1 22.8 15 21.4 15 20C15 14 18 9 18 9C18 9 19 13 19 17C19 19.2 18.5 21.3 17.5 23.1C22.5 21.5 26 17.1 26 12C26 6.5 21.5 2 16 2Z" fill="#22c55e"/>
  <path d="M16 2C16 2 23 6 23 14C23 18.4 20.4 22.2 16.7 24.1C16.9 22.8 17 21.4 17 20C17 14 14 9 14 9C14 9 13 13 13 17C13 19.2 13.5 21.3 14.5 23.1C9.5 21.5 6 17.1 6 12C6 6.5 10.5 2 16 2Z" fill="#16a34a" opacity="0.7"/>
  <circle cx="16" cy="27" r="3" fill="#22c55e"/>
</svg>
